<?xml version="1.0" encoding="UTF-8" standalone="no"?>
<!-- Created with Inkscape (http://www.inkscape.org/) -->

<svg
   width="900"
   height="192"
   viewBox="0 0 238.125 50.8"
   version="1.1"
   id="svg1"
   inkscape:version="1.3.2 (091e20e, 2023-11-25, custom)"
   sodipodi:docname="logo.svg"
   xmlns:inkscape="http://www.inkscape.org/namespaces/inkscape"
   xmlns:sodipodi="http://sodipodi.sourceforge.net/DTD/sodipodi-0.dtd"
   xmlns="http://www.w3.org/2000/svg"
   xmlns:svg="http://www.w3.org/2000/svg">
  <sodipodi:namedview
     id="namedview1"
     pagecolor="#ffffff"
     bordercolor="#000000"
     borderopacity="0.25"
     inkscape:showpageshadow="2"
     inkscape:pageopacity="0.0"
     inkscape:pagecheckerboard="0"
     inkscape:deskcolor="#d1d1d1"
     inkscape:document-units="mm"
     inkscape:zoom="0.80765894"
     inkscape:cx="316.3464"
     inkscape:cy="317.58455"
     inkscape:window-width="2560"
     inkscape:window-height="1520"
     inkscape:window-x="-11"
     inkscape:window-y="-11"
     inkscape:window-maximized="1"
     inkscape:current-layer="layer1" />
  <defs
     id="defs1" />
  <g
     inkscape:label="Layer 1"
     inkscape:groupmode="layer"
     id="layer1">
    <path
       d="m 62.924294,26.008543 q 0.582084,0.105834 1.181806,0.229306 0.617362,0.123472 1.111251,0.370417 0.493889,0.246944 0.81139,0.670278 0.3175,0.405695 0.3175,1.111251 0,0.582084 -0.3175,1.040695 -0.299862,0.440972 -0.81139,0.758473 -0.511528,0.299861 -1.164167,0.47625 -0.635001,0.15875 -1.305279,0.15875 -1.411112,0 -2.416529,-0.511528 -1.005418,-0.511528 -1.746251,-1.516945 -0.758473,-0.934862 -1.481668,-1.181807 -0.705556,-0.264583 -1.534584,0.176389 -0.352778,0.194028 -0.617362,0.493889 -0.264584,0.282223 -0.405695,0.670279 -0.123472,0.388055 -0.105833,0.846667 0.03528,0.458611 0.282222,0.987778 0.423334,0.899584 1.199446,1.710974 0.776111,0.79375 1.799167,1.393473 1.023057,0.599722 2.25778,0.9525 1.252362,0.352778 2.610557,0.352778 1.746251,0 3.227919,-0.546805 1.481668,-0.564445 2.55764,-1.516946 1.093612,-0.952501 1.710974,-2.24014 0.617361,-1.28764 0.617361,-2.751669 0,-1.499306 -0.564444,-2.575279 -0.546806,-1.075973 -1.44639,-1.816807 -0.899584,-0.740834 -2.046113,-1.199445 -1.146528,-0.476251 -2.345974,-0.740834 -1.164167,-0.229306 -2.099029,-0.423334 -0.917223,-0.211667 -1.569862,-0.493889 -0.635,-0.299861 -0.987778,-0.705556 -0.33514,-0.423334 -0.33514,-1.093612 0,-0.546806 0.229306,-0.987778 0.246945,-0.458612 0.687917,-0.793751 0.458612,-0.335139 1.075973,-0.511528 0.635001,-0.194028 1.411112,-0.194028 0.705556,0 1.199446,0.08819 0.511528,0.08819 0.917222,0.264583 0.405695,0.176389 0.776112,0.440973 0.370417,0.264583 0.846667,0.599722 0.370417,0.246945 0.758473,0.335139 0.388056,0.08819 0.740834,0.05292 0.370417,-0.05292 0.687917,-0.194028 0.3175,-0.141111 0.546806,-0.370417 0.194028,-0.176389 0.335139,-0.440972 0.15875,-0.264584 0.229306,-0.564445 0.07055,-0.3175 0.03528,-0.635001 -0.03528,-0.3175 -0.211667,-0.617361 -0.493889,-0.829028 -1.252362,-1.44639 -0.740834,-0.635 -1.658057,-1.040695 -0.899584,-0.423334 -1.940279,-0.635 -1.023056,-0.211667 -2.08139,-0.211667 -1.569862,0 -2.980974,0.511528 -1.393474,0.511528 -2.451808,1.428751 -1.058334,0.917223 -1.675695,2.187223 -0.617362,1.270001 -0.617362,2.769308 0,1.481668 0.564445,2.628196 0.564445,1.146529 1.60514,1.993196 1.040695,0.829028 2.522363,1.393473 1.481667,0.546806 3.316113,0.864306 z M 71.08141,14.525619 q 0,0.47625 0.176389,0.917223 0.194028,0.423333 0.511528,0.740833 0.3175,0.317501 0.740834,0.511529 0.440972,0.176389 0.917223,0.176389 0.47625,0 0.899584,-0.176389 0.440972,-0.194028 0.758472,-0.511529 0.33514,-0.3175 0.511529,-0.740833 0.194027,-0.440973 0.194027,-0.917223 0,-0.493889 -0.194027,-0.917223 -0.176389,-0.423334 -0.511529,-0.740834 -0.3175,-0.3175 -0.758472,-0.493889 -0.423334,-0.194028 -0.899584,-0.194028 -0.476251,0 -0.917223,0.194028 -0.423334,0.176389 -0.740834,0.493889 -0.3175,0.3175 -0.511528,0.740834 -0.176389,0.423334 -0.176389,0.917223 z m 4.550836,5.979587 q 0,-0.440972 -0.176389,-0.829028 -0.15875,-0.405695 -0.440972,-0.705556 -0.282223,-0.299862 -0.687917,-0.458612 -0.388056,-0.176389 -0.829029,-0.176389 -0.458611,0 -0.881945,0.176389 -0.405694,0.15875 -0.705556,0.458612 -0.299861,0.299861 -0.47625,0.705556 -0.176389,0.388056 -0.176389,0.829028 V 32.79952 q 0,0.458611 0.176389,0.846667 0.176389,0.388056 0.47625,0.687917 0.299862,0.299862 0.687917,0.476251 0.405695,0.15875 0.864307,0.15875 0.440972,0 0.829028,-0.15875 0.405695,-0.176389 0.705556,-0.476251 0.299861,-0.299861 0.458611,-0.687917 0.176389,-0.388056 0.176389,-0.846667 z m 3.765053,-2.169585 q 0.740834,0 1.28764,0.440973 0.564445,0.440972 0.758473,1.111251 0.881945,-0.723195 1.869723,-1.12889 0.987778,-0.405695 2.046113,-0.405695 1.552223,0 2.839863,0.635001 1.287639,0.635 2.204862,1.746251 0.934862,1.093612 1.44639,2.592918 0.511528,1.481668 0.529167,3.175002 v 6.367644 q 0,0.458611 -0.176389,0.846667 -0.176389,0.388056 -0.47625,0.670278 -0.282223,0.282222 -0.687917,0.458611 -0.405695,0.158751 -0.846668,0.158751 -0.440972,0 -0.846667,-0.158751 -0.388056,-0.176389 -0.687917,-0.458611 -0.282222,-0.282222 -0.458611,-0.670278 -0.176389,-0.388056 -0.176389,-0.846667 v -6.350005 q -0.01764,-0.811389 -0.246945,-1.499306 -0.211667,-0.705556 -0.617362,-1.217084 -0.405694,-0.511529 -0.987778,-0.81139 -0.582084,-0.299861 -1.305279,-0.299861 -0.723195,0 -1.322917,0.264583 -0.599723,0.264584 -1.040695,0.740834 -0.440973,0.476251 -0.705556,1.12889 -0.246945,0.652639 -0.264584,1.428751 v 6.544032 q 0,0.458611 -0.176389,0.846667 -0.15875,0.388056 -0.458611,0.687917 -0.299862,0.299862 -0.705556,0.476251 -0.388056,0.15875 -0.829029,0.15875 -0.458611,0 -0.864306,-0.15875 -0.388056,-0.176389 -0.687917,-0.476251 -0.299861,-0.299861 -0.47625,-0.687917 -0.176389,-0.388056 -0.176389,-0.846667 V 20.505206 q 0,-0.440972 0.176389,-0.829028 0.176389,-0.405695 0.47625,-0.705556 0.299861,-0.299862 0.705556,-0.458612 0.423334,-0.176389 0.881945,-0.176389 z m 30.135191,7.919867 q 0,0.141111 0,0.264583 0.0176,0.105834 0.0176,0.246945 0,0.141111 -0.0176,0.264583 0,0.123473 0,0.264584 v 6.155976 q -0.0353,1.76389 -0.70555,3.280836 -0.65264,1.534584 -1.79917,2.645835 -1.12889,1.12889 -2.66347,1.76389 -1.53459,0.652639 -3.29848,0.652639 -1.693332,0 -3.192639,-0.582083 -1.499306,-0.582084 -2.592918,-1.693335 -0.388056,-0.388056 -0.599723,-0.846667 -0.194027,-0.440973 -0.211666,-0.899584 0,-0.440973 0.176389,-0.864306 0.176389,-0.405695 0.529167,-0.723195 0.529167,-0.458612 1.005417,-0.582084 0.493889,-0.105833 0.934862,0 0.440972,0.105834 0.811389,0.352778 0.388056,0.264584 0.723195,0.529167 0.723195,0.546806 1.393477,0.723195 0.68791,0.176389 1.42875,0.141111 0.67028,-0.03528 1.25236,-0.299861 0.59972,-0.264583 1.05833,-0.705556 0.47625,-0.423334 0.79375,-0.97014 0.33514,-0.546805 0.47625,-1.164167 -0.88194,0.458611 -1.86972,0.705556 -0.97014,0.246945 -2.02847,0.246945 -1.728615,0 -3.2632,-0.65264 -1.516945,-0.670278 -2.663474,-1.799168 -1.146528,-1.146528 -1.816806,-2.681112 -0.670279,-1.534585 -0.670279,-3.263197 0,-1.746251 0.670279,-3.263197 0.670278,-1.534584 1.816806,-2.681113 1.146529,-1.146528 2.663474,-1.799168 1.534585,-0.670278 3.2632,-0.670278 1.16416,0 2.2225,0.299862 1.07597,0.299861 2.02847,0.864306 0.26459,-0.529167 0.77611,-0.846668 0.52917,-0.3175 1.16417,-0.3175 0.45861,0 0.84667,0.176389 0.40569,0.15875 0.70555,0.458612 0.29987,0.282222 0.45862,0.670278 0.17638,0.388056 0.17638,0.846667 z m -12.400142,0.511528 q 0,0.829028 0.3175,1.569862 0.3175,0.723195 0.864306,1.270001 0.546806,0.546806 1.270001,0.864306 0.740835,0.299861 1.569865,0.299861 0.79375,0 1.48166,-0.264583 0.68792,-0.282223 1.21709,-0.758473 0.5468,-0.493889 0.88194,-1.146528 0.33514,-0.670279 0.42334,-1.428751 v -0.81139 q -0.0882,-0.758473 -0.42334,-1.411112 -0.33514,-0.670278 -0.88194,-1.146528 -0.52917,-0.49389 -1.21709,-0.758473 -0.68791,-0.282223 -1.48166,-0.282223 -0.82903,0 -1.569865,0.317501 -0.723195,0.299861 -1.270001,0.846667 -0.546806,0.546806 -0.864306,1.270001 -0.3175,0.723195 -0.3175,1.569862 z M 118.5892,26.008543 q 0.58209,0.105834 1.18181,0.229306 0.61736,0.123472 1.11125,0.370417 0.49389,0.246944 0.81139,0.670278 0.3175,0.405695 0.3175,1.111251 0,0.582084 -0.3175,1.040695 -0.29986,0.440972 -0.81139,0.758473 -0.51153,0.299861 -1.16417,0.47625 -0.635,0.15875 -1.30528,0.15875 -1.41111,0 -2.41652,-0.511528 -1.00542,-0.511528 -1.74626,-1.516945 -0.75847,-0.934862 -1.48166,-1.181807 -0.70556,-0.264583 -1.53459,0.176389 -0.35278,0.194028 -0.61736,0.493889 -0.26458,0.282223 -0.40569,0.670279 -0.12348,0.388055 -0.10584,0.846667 0.0353,0.458611 0.28222,0.987778 0.42334,0.899584 1.19945,1.710974 0.77611,0.79375 1.79917,1.393473 1.02305,0.599722 2.25778,0.9525 1.25236,0.352778 2.61055,0.352778 1.74626,0 3.22792,-0.546805 1.48167,-0.564445 2.55764,-1.516946 1.09362,-0.952501 1.71098,-2.24014 0.61736,-1.28764 0.61736,-2.751669 0,-1.499306 -0.56445,-2.575279 -0.5468,-1.075973 -1.44639,-1.816807 -0.89958,-0.740834 -2.04611,-1.199445 -1.14653,-0.476251 -2.34597,-0.740834 -1.16417,-0.229306 -2.09903,-0.423334 -0.91722,-0.211667 -1.56986,-0.493889 -0.635,-0.299861 -0.98778,-0.705556 -0.33514,-0.423334 -0.33514,-1.093612 0,-0.546806 0.2293,-0.987778 0.24695,-0.458612 0.68792,-0.793751 0.45861,-0.335139 1.07597,-0.511528 0.63501,-0.194028 1.41112,-0.194028 0.70555,0 1.19944,0.08819 0.51153,0.08819 0.91722,0.264583 0.4057,0.176389 0.77612,0.440973 0.37041,0.264583 0.84666,0.599722 0.37042,0.246945 0.75848,0.335139 0.38805,0.08819 0.74083,0.05292 0.37042,-0.05292 0.68792,-0.194028 0.3175,-0.141111 0.5468,-0.370417 0.19403,-0.176389 0.33514,-0.440972 0.15875,-0.264584 0.22931,-0.564445 0.0705,-0.3175 0.0353,-0.635001 -0.0353,-0.3175 -0.21167,-0.617361 -0.49389,-0.829028 -1.25236,-1.44639 -0.74084,-0.635 -1.65806,-1.040695 -0.89958,-0.423334 -1.94028,-0.635 -1.02305,-0.211667 -2.08139,-0.211667 -1.56986,0 -2.98097,0.511528 -1.39348,0.511528 -2.45181,1.428751 -1.05833,0.917223 -1.6757,2.187223 -0.61736,1.270001 -0.61736,2.769308 0,1.481668 0.56445,2.628196 0.56444,1.146529 1.60514,1.993196 1.04069,0.829028 2.52236,1.393473 1.48167,0.546806 3.31611,0.864306 z m 14.24254,-11.465285 q 0,-0.458612 -0.17639,-0.846668 -0.15875,-0.388055 -0.45861,-0.670278 -0.29986,-0.299861 -0.70555,-0.458611 -0.38806,-0.176389 -0.84667,-0.176389 -0.45861,0 -0.86431,0.176389 -0.38805,0.15875 -0.68791,0.458611 -0.29987,0.282223 -0.47625,0.670278 -0.15875,0.388056 -0.15875,0.846668 v 3.84528 h -0.82903 q -0.45861,0 -0.86431,0.176389 -0.38805,0.15875 -0.68792,0.458611 -0.29986,0.282223 -0.47625,0.687918 -0.15875,0.388055 -0.15875,0.846667 0,0.458611 0.15875,0.864306 0.17639,0.388056 0.47625,0.687917 0.29987,0.299861 0.68792,0.47625 0.4057,0.176389 0.86431,0.176389 h 0.82903 v 10.054174 q 0,0.458611 0.15875,0.846667 0.17638,0.388056 0.47625,0.687917 0.29986,0.282223 0.68791,0.458612 0.4057,0.15875 0.86431,0.15875 0.45861,0 0.84667,-0.15875 0.40569,-0.176389 0.70555,-0.458612 0.29986,-0.299861 0.45861,-0.687917 0.17639,-0.388056 0.17639,-0.846667 V 22.762985 h 0.97014 q 0.45861,0 0.86431,-0.176389 0.40569,-0.176389 0.68792,-0.47625 0.29986,-0.299861 0.45861,-0.687917 0.17639,-0.405695 0.17639,-0.864306 0,-0.458612 -0.17639,-0.846667 -0.15875,-0.405695 -0.45861,-0.687918 -0.28223,-0.299861 -0.68792,-0.458611 -0.4057,-0.176389 -0.86431,-0.176389 h -0.97014 z m 2.14222,12.223758 q 0,-1.746251 0.67028,-3.263197 0.67028,-1.534584 1.81681,-2.681113 1.14653,-1.146528 2.66347,-1.799168 1.53459,-0.670278 3.2632,-0.670278 1.71097,0 3.22792,0.65264 1.51694,0.652639 2.64583,1.781529 1.14653,1.11125 1.81681,2.628196 0.67028,1.516945 0.70556,3.227919 v 6.08542 q 0,0.458612 -0.17639,0.881945 -0.17639,0.405695 -0.47625,0.705556 -0.29986,0.299862 -0.70556,0.476251 -0.40569,0.176389 -0.88194,0.176389 -0.67028,0 -1.16417,-0.3175 -0.49389,-0.33514 -0.74083,-0.864307 -0.9525,0.635001 -2.02848,1.005418 -1.05833,0.370417 -2.2225,0.370417 -1.72861,0 -3.2632,-0.65264 -1.51694,-0.670278 -2.66347,-1.799168 -1.14653,-1.146528 -1.81681,-2.681112 -0.67028,-1.534585 -0.67028,-3.263197 z m 4.39209,0 q 0,0.829028 0.3175,1.569862 0.3175,0.723195 0.86431,1.270001 0.5468,0.546806 1.27,0.864306 0.74083,0.299861 1.56986,0.299861 0.84667,0 1.56986,-0.299861 0.74084,-0.3175 1.27,-0.864306 0.54681,-0.546806 0.86431,-1.270001 0.3175,-0.740834 0.3175,-1.569862 0,-0.846667 -0.3175,-1.569862 -0.3175,-0.723195 -0.86431,-1.270001 -0.52916,-0.546806 -1.27,-0.846667 -0.72319,-0.317501 -1.56986,-0.317501 -0.82903,0 -1.56986,0.317501 -0.7232,0.299861 -1.27,0.846667 -0.54681,0.546806 -0.86431,1.270001 -0.3175,0.723195 -0.3175,1.569862 z m 18.31713,6.032504 q 0,0.458611 -0.17639,0.846667 -0.15875,0.388056 -0.45861,0.687917 -0.29986,0.299862 -0.70555,0.476251 -0.38806,0.15875 -0.82903,0.15875 -0.45861,0 -0.86431,-0.15875 -0.38805,-0.176389 -0.68792,-0.476251 -0.29986,-0.299861 -0.47625,-0.687917 -0.17638,-0.388056 -0.17638,-0.846667 V 20.505206 q 0,-0.440972 0.17638,-0.829028 0.17639,-0.405695 0.47625,-0.705556 0.29987,-0.299862 0.70556,-0.458612 0.42333,-0.176389 0.88195,-0.176389 0.67027,0 1.19944,0.370417 0.52917,0.370417 0.77611,0.952501 0.98778,-0.617362 2.11667,-0.952501 1.14653,-0.335139 2.38125,-0.352778 h 0.12347 q 1.07598,0 1.6757,0.617362 0.59972,0.599722 0.59972,1.552223 0,0.47625 -0.17639,0.881945 -0.17639,0.388056 -0.49389,0.687917 -0.29986,0.282223 -0.72319,0.440973 -0.4057,0.15875 -0.88195,0.15875 h -0.0882 q -0.89958,0.01764 -1.69333,0.388056 -0.79375,0.352778 -1.39348,0.970139 -0.59972,0.599723 -0.9525,1.411112 -0.33514,0.81139 -0.33514,1.728613 v 5.60917 z m 14.40126,-6.790977 q 0.58209,0.105834 1.18181,0.229306 0.61736,0.123472 1.11125,0.370417 0.49389,0.246944 0.81139,0.670278 0.3175,0.405695 0.3175,1.111251 0,0.582084 -0.3175,1.040695 -0.29986,0.440972 -0.81139,0.758473 -0.51153,0.299861 -1.16417,0.47625 -0.635,0.15875 -1.30528,0.15875 -1.41111,0 -2.41653,-0.511528 -1.00541,-0.511528 -1.74625,-1.516945 -0.75847,-0.934862 -1.48166,-1.181807 -0.70556,-0.264583 -1.53459,0.176389 -0.35278,0.194028 -0.61736,0.493889 -0.26458,0.282223 -0.4057,0.670279 -0.12347,0.388055 -0.10583,0.846667 0.0353,0.458611 0.28222,0.987778 0.42334,0.899584 1.19945,1.710974 0.77611,0.79375 1.79917,1.393473 1.02305,0.599722 2.25778,0.9525 1.25236,0.352778 2.61055,0.352778 1.74625,0 3.22792,-0.546805 1.48167,-0.564445 2.55764,-1.516946 1.09361,-0.952501 1.71098,-2.24014 0.61736,-1.28764 0.61736,-2.751669 0,-1.499306 -0.56445,-2.575279 -0.5468,-1.075973 -1.44639,-1.816807 -0.89958,-0.740834 -2.04611,-1.199445 -1.14653,-0.476251 -2.34597,-0.740834 -1.16417,-0.229306 -2.09903,-0.423334 -0.91723,-0.211667 -1.56986,-0.493889 -0.635,-0.299861 -0.98778,-0.705556 -0.33514,-0.423334 -0.33514,-1.093612 0,-0.546806 0.2293,-0.987778 0.24695,-0.458612 0.68792,-0.793751 0.45861,-0.335139 1.07597,-0.511528 0.635,-0.194028 1.41112,-0.194028 0.70555,0 1.19944,0.08819 0.51153,0.08819 0.91722,0.264583 0.4057,0.176389 0.77612,0.440973 0.37041,0.264583 0.84666,0.599722 0.37042,0.246945 0.75848,0.335139 0.38805,0.08819 0.74083,0.05292 0.37042,-0.05292 0.68792,-0.194028 0.3175,-0.141111 0.5468,-0.370417 0.19403,-0.176389 0.33514,-0.440972 0.15875,-0.264584 0.22931,-0.564445 0.0705,-0.3175 0.0353,-0.635001 -0.0353,-0.3175 -0.21167,-0.617361 -0.49389,-0.829028 -1.25236,-1.44639 -0.74084,-0.635 -1.65806,-1.040695 -0.89958,-0.423334 -1.94028,-0.635 -1.02306,-0.211667 -2.08139,-0.211667 -1.56986,0 -2.98097,0.511528 -1.39348,0.511528 -2.45181,1.428751 -1.05834,0.917223 -1.6757,2.187223 -0.61736,1.270001 -0.61736,2.769308 0,1.481668 0.56445,2.628196 0.56444,1.146529 1.60514,1.993196 1.04069,0.829028 2.52236,1.393473 1.48167,0.546806 3.31611,0.864306 z m 18.33477,-5.944309 0.17639,-0.405695 q 0.17639,-0.405695 0.49389,-0.705556 0.3175,-0.299861 0.70555,-0.440973 0.38806,-0.15875 0.81139,-0.141111 0.44097,0 0.86431,0.176389 0.42333,0.194028 0.72319,0.511528 0.29986,0.3175 0.44097,0.723195 0.15875,0.388056 0.14112,0.829029 0,0.423333 -0.19403,0.846667 l -1.79917,3.898197 1.14653,2.540002 3.66889,-8.237367 q 0.17639,-0.405695 0.49389,-0.705556 0.3175,-0.299861 0.70556,-0.440973 0.38805,-0.15875 0.81138,-0.141111 0.44098,0 0.86431,0.176389 0.42333,0.194028 0.70556,0.511528 0.29986,0.3175 0.45861,0.723195 0.15875,0.388056 0.14111,0.829029 0,0.423333 -0.19403,0.846667 l -5.64445,12.206119 q -0.21166,0.440973 -0.52916,0.723195 -0.21167,0.211667 -0.56445,0.388056 -0.29986,0.123472 -0.61736,0.176389 -0.0706,0 -0.14111,0.01764 -0.0529,0 -0.12347,0 h -0.12348 q -0.0353,0 -0.0882,0 -0.0529,-0.01764 -0.10583,-0.01764 -0.14112,-0.03528 -0.29987,-0.07056 -0.15875,-0.03528 -0.29986,-0.105833 -0.35277,-0.15875 -0.58208,-0.388056 -0.33514,-0.282222 -0.52917,-0.723195 l -1.4993,-3.227919 -1.48167,3.227919 q -0.21167,0.440973 -0.52917,0.723195 -0.2293,0.229306 -0.58208,0.388056 -0.29986,0.141111 -0.635,0.176389 -0.0882,0.01764 -0.24695,0.01764 h -0.0882 q -0.0529,0 -0.10584,0 -0.0529,-0.01764 -0.12347,-0.01764 -0.14111,-0.03528 -0.29986,-0.07056 -0.15875,-0.03528 -0.29986,-0.105833 -0.33514,-0.141111 -0.635,-0.440973 -0.28222,-0.264583 -0.47625,-0.670278 l -5.66209,-12.223758 q -0.19403,-0.423334 -0.21166,-0.846667 0,-0.440973 0.14111,-0.829029 0.15875,-0.405694 0.45861,-0.723195 0.29986,-0.3175 0.70555,-0.511528 0.42334,-0.176389 0.84667,-0.176389 0.44097,-0.01764 0.82903,0.141111 0.38806,0.158751 0.68792,0.458612 0.3175,0.282222 0.51152,0.705556 l 3.70417,8.237367 1.12889,-2.557641 -1.79916,-3.898197 q -0.19403,-0.423334 -0.21167,-0.846667 0,-0.440973 0.14111,-0.829029 0.15875,-0.405694 0.45861,-0.723195 0.29986,-0.3175 0.70556,-0.511528 0.42333,-0.176389 0.84666,-0.176389 0.42334,-0.01764 0.81139,0.141111 0.38806,0.158751 0.70556,0.458612 0.3175,0.282222 0.51153,0.705556 z m 9.76224,6.702782 q 0,-1.746251 0.67028,-3.263197 0.67028,-1.534584 1.81681,-2.681113 1.14653,-1.146528 2.66347,-1.799168 1.53459,-0.670278 3.2632,-0.670278 1.71097,0 3.22792,0.65264 1.51694,0.652639 2.64583,1.781529 1.14653,1.11125 1.81681,2.628196 0.67028,1.516945 0.70556,3.227919 v 6.08542 q 0,0.458612 -0.17639,0.881945 -0.17639,0.405695 -0.47625,0.705556 -0.29986,0.299862 -0.70556,0.476251 -0.40569,0.176389 -0.88194,0.176389 -0.67028,0 -1.16417,-0.3175 -0.49389,-0.33514 -0.74084,-0.864307 -0.9525,0.635001 -2.02847,1.005418 -1.05833,0.370417 -2.2225,0.370417 -1.72861,0 -3.2632,-0.65264 -1.51694,-0.670278 -2.66347,-1.799168 -1.14653,-1.146528 -1.81681,-2.681112 -0.67028,-1.534585 -0.67028,-3.263197 z m 4.39209,0 q 0,0.829028 0.3175,1.569862 0.3175,0.723195 0.86431,1.270001 0.5468,0.546806 1.27,0.864306 0.74083,0.299861 1.56986,0.299861 0.84667,0 1.56986,-0.299861 0.74084,-0.3175 1.27,-0.864306 0.54681,-0.546806 0.86431,-1.270001 0.3175,-0.740834 0.3175,-1.569862 0,-0.846667 -0.3175,-1.569862 -0.3175,-0.723195 -0.86431,-1.270001 -0.52916,-0.546806 -1.27,-0.846667 -0.72319,-0.317501 -1.56986,-0.317501 -0.82903,0 -1.56986,0.317501 -0.7232,0.299861 -1.27,0.846667 -0.54681,0.546806 -0.86431,1.270001 -0.3175,0.723195 -0.3175,1.569862 z m 22.33881,8.396117 q 1.74625,0 3.2632,-0.65264 1.53458,-0.670278 2.66347,-1.799168 1.14653,-1.146528 1.79917,-2.681112 0.67028,-1.534585 0.67028,-3.263197 0,-1.746251 -0.67028,-3.263197 -0.65264,-1.534584 -1.79917,-2.681113 -1.12889,-1.146528 -2.66347,-1.799168 -1.51695,-0.670278 -3.2632,-0.670278 -1.16417,0 -2.24014,0.3175 -1.07597,0.299862 -2.02848,0.864307 -0.28222,-0.529167 -0.81138,-0.846668 -0.51153,-0.335139 -1.14653,-0.335139 -0.45861,0 -0.86431,0.176389 -0.38806,0.15875 -0.68792,0.458612 -0.29986,0.282222 -0.47625,0.670278 -0.15875,0.388056 -0.15875,0.846667 v 18.273901 q 0,0.458612 0.15875,0.846668 0.17639,0.388055 0.47625,0.670278 0.29986,0.299861 0.68792,0.458611 0.4057,0.176389 0.86431,0.176389 0.44097,0 0.84666,-0.176389 0.4057,-0.15875 0.68792,-0.458611 0.29986,-0.282223 0.47625,-0.670278 0.17639,-0.388056 0.17639,-0.846668 v -4.656669 q 0.89958,0.511528 1.905,0.776111 1.02306,0.264584 2.13431,0.264584 z m -4.02167,-8.396117 q 0,-0.846667 0.3175,-1.569862 0.3175,-0.723195 0.86431,-1.270001 0.5468,-0.546806 1.27,-0.846667 0.74083,-0.317501 1.56986,-0.317501 0.84667,0 1.56986,0.317501 0.74083,0.299861 1.27,0.846667 0.54681,0.546806 0.86431,1.270001 0.3175,0.723195 0.3175,1.569862 0,0.829028 -0.3175,1.569862 -0.3175,0.723195 -0.86431,1.270001 -0.52917,0.546806 -1.27,0.864306 -0.72319,0.299861 -1.56986,0.299861 -0.82903,0 -1.56986,-0.299861 -0.7232,-0.3175 -1.27,-0.864306 -0.54681,-0.546806 -0.86431,-1.270001 -0.3175,-0.740834 -0.3175,-1.569862 z"
       id="text1"
       style="font-weight:bold;font-size:35.2778px;font-family:'Antipasto Pro';-inkscape-font-specification:'Antipasto Pro, Bold';letter-spacing:-2.0029px;fill:#7ebcc2;stroke:#0a2527;stroke-width:1.4;stroke-linecap:round;stroke-linejoin:round"
       aria-label="SingStarSwap" />
    <g
       id="g56"
       transform="matrix(0.25702831,0,0,0.25702831,-1.8813351,-5.6141774)">
      <path
         style="fill:#a92731;fill-opacity:1;stroke:#000000;stroke-width:5;stroke-dasharray:none"
         d="m -146.77539,52.265625 c -8.19123,-0.04391 -1.13473,5.974792 1.15625,7.71875 5.62148,4.279269 13.95058,8.572621 21.16992,10.9375 5.73878,1.879886 14.12773,3.793151 16.58984,3.603516 0.41616,-0.03205 1.74317,0.0031 2.69141,-1.53125 1.59133,-2.574888 0.18451,-2.865716 0.10352,-3.042969 -0.72895,-1.595276 -3.65631,-6.438812 -4.90625,-8.173828 -1.33436,-1.852199 -3.03406,-1.817264 -7.21485,-2.09961 -9.76362,-0.659389 -18.22963,-2.756115 -25.24414,-6.166015 -1.28524,-0.624786 -2.34819,-1.166527 -3.50586,-1.222657 -0.29663,-0.01438 -0.57561,-0.02202 -0.83984,-0.02344 z"
         id="path8"
         transform="matrix(1.1819467,0,0,0.98256471,216.57813,127.35268)" />
      <path
         style="fill:#b7acb0;fill-opacity:1;stroke:#000000;stroke-width:5;stroke-dasharray:none"
         d="m 122.65252,32.719836 c -18.33235,0.524933 -37.24829,8.571326 -49.61719,21.56836 -3.23015,3.394175 -6.97423,7.198876 -5.97656,9.798828 0.51848,1.350261 0.83859,7.595358 2.00751,8.28133 4.14601,2.433058 6.445914,3.413724 9.491034,7.895598 2.4447,3.598154 0.752543,4.339811 1.856563,8.592361 1.86678,7.190584 2.425832,11.008431 -0.177998,16.751047 l 2.963511,4.93474 2.56836,6.50586 c 1.14665,2.90409 3.47586,9.02841 5.169924,13.60156 5.955836,16.0779 13.310336,35.81082 14.148436,37.75586 0.11176,0.25936 0.45185,1.83075 2.49024,2.75586 1.4837,0.67337 3.93622,1.00555 9.8789,1.97266 3.3642,0.54749 4.77305,0.0605 9.25781,-2.31445 14.04506,-7.43781 25.37145,-17.82041 33.34375,-30.63086 2.29486,-3.68753 4.55183,-7.00099 3.15821,-9.25586 -0.84917,-1.37347 -4.24987,-2.32109 -7.26563,-3.28907 l -2.24023,-7.90429 c 2.65296,-2.09434 19.10518,-14.35554 24.32617,-18.12305 1.89657,-1.36858 5.35466,-3.880884 7.68555,-5.582031 4.7136,-3.440108 4.96484,-3.378906 4.96484,-3.378906 4.94497,0 3.98383,-3.820081 2.63477,-8.376953 -8.56466,-28.929793 -32.55039,-48.513443 -62.80078,-51.314453 -2.60282,-0.241007 -5.23413,-0.319536 -7.86719,-0.244141 z"
         id="path6"
         inkscape:label="path6"
         sodipodi:nodetypes="sscssscccsssssscccsscsss" />
      <circle
         style="fill:#fff4db;fill-opacity:1;stroke:#000000;stroke-width:4.99999;stroke-linecap:round;stroke-linejoin:round;stroke-dasharray:none"
         id="path56"
         cx="125.0103"
         cy="102.51183"
         r="70.371155" />
      <path
         style="fill:#a92731;fill-opacity:1;stroke:#000000;stroke-width:5;stroke-dasharray:none"
         d="m 0.75195312,-31.15625 c -1.92211672,-0.132824 -4.04474412,1.600595 -5.32421872,2.537109 -7.0599774,5.167568 -26.3647334,19.6558765 -30.2851564,22.712891 -0.428641,0.3342403 -1.344089,1.0349768 -1.654297,1.9121094 -1.367237,3.86599638 2.590026,4.54537168 8.664063,6.3808594 2.685088,0.8113959 4.273767,1.3435944 4.845703,1.5332031 -0.313409,0.8982151 -0.837999,2.0612539 -1.796875,3.9824218 -9.379446,18.7923063 -25.832774,33.3287553 -48.980469,42.9570313 -1.548257,0.643993 -3.16853,1.280658 -3.988281,2.013672 -2.314599,2.069625 -0.189941,6.492855 3.945312,17.611328 0.02388,0.0642 0.648059,2.181053 2.869141,2.455078 1.382226,0.170532 2.57267,-0.346657 5.052734,-1.091797 29.427071,-8.841347 53.172413,-29.098061 66.9140629,-57.044922 0.5515547,-1.121721 1.059543,-2.072344 1.484375,-2.818359 0.93965,0.271795 2.3185208,0.72079 4.6484375,1.492188 4.0872106,1.353215 7.6306556,2.916234 8.9355466,-0.484375 C 16.634539,11.55196 15.36179,7.7432536 14.230469,4.2167969 8.1761715,-14.655142 3.5570231,-29.314071 2.5683594,-30.302734 2.0111152,-30.860014 1.3926587,-31.111975 0.75195312,-31.15625 Z"
         id="path7"
         transform="matrix(1.0364653,0,0,0.99914467,188.34057,125.20672)" />
      <path
         style="fill:#3e878e;fill-opacity:1;stroke:#000000;stroke-width:5;stroke-dasharray:none"
         d="m -101.57617,2.890625 c -1.95471,-0.039334 -5.10987,1.7521178 -7.95313,3.2460937 -3.23796,1.7013676 -9.91582,5.1789923 -14.83593,7.7246093 -6.91692,3.578737 -11.22523,5.269185 -10.35352,8.503906 0.20904,0.775324 4.34901,7.181119 9.05469,14.384766 10.91744,16.712877 17.75636,27.206484 19.9082,30.544922 0.94179,1.461103 3.54094,5.469769 5.777344,8.914062 2.233317,3.43955 4.514915,6.991055 5.021485,7.8125 0.571871,0.927339 1.798854,3.03711 3.851562,3.03711 1.103954,0 4.954821,-2.008621 8.970703,-4.0625 4.016132,-2.054007 7.758057,-4.002593 8.316407,-4.527344 0,0 2.357798,0.260212 0.07813,-6.175781 -1.150752,-3.248813 -3.697032,-10.093059 -9.125,-24.732422 -12.644545,-34.102628 -15.14392,-41.0399336 -16.25,-43.0000001 -0.146349,-0.2593424 -0.30811,-1.0006049 -1.701181,-1.5351563 -0.22578,-0.086607 -0.48052,-0.1291464 -0.75976,-0.1347656 z"
         id="path10"
         transform="translate(188.97869,126.24718)" />
      <path
         style="fill:#000000;stroke:#000000;stroke-width:2;stroke-dasharray:none"
         d="m 175.12845,92.896026 v 5e-6 c 0.29951,0.570315 1.10334,0.60127 1.55273,0.05979 0.93748,-1.129594 -0.74687,-7.493304 -3.42979,-12.958232 -3.83128,-7.804054 -9.13072,-14.251713 -15.90068,-19.34585 -3.36784,-2.534163 -4.11426,-2.94473 -4.69208,-2.580853 -0.95899,0.603917 -0.59816,1.100171 2.90411,3.994034 7.15359,5.910892 11.90251,11.787664 15.53643,19.226279 1.41994,2.906622 3.27528,8.050365 3.58937,9.951181 0.10821,0.654844 0.30616,1.398984 0.43991,1.653646 z"
         id="path5" />
      <circle
         style="fill:#ffe4a4;fill-opacity:1;stroke:#000000;stroke-width:5;stroke-dasharray:none"
         id="path52"
         cx="124.66195"
         cy="102.2958"
         r="28.431797" />
      <path
         style="fill:#ffffff;stroke:#000000;stroke-width:5;stroke-dasharray:none"
         d="m 122.52429,108.74429 c 7.90003,2.73004 12.57296,-8.948547 5.05275,-12.627841 -4.55988,-2.230939 -9.63346,1.054607 -9.63346,6.238431 0,3.18459 1.54568,5.34057 4.58071,6.38941 z"
         id="path1" />
      <path
         style="display:inline;fill:#7ebdc2;fill-opacity:1;stroke:#000000;stroke-width:5;stroke-dasharray:none"
         d="m -108.24805,-14.191406 c -1.28996,0 -6.45049,2.800664 -12.15625,5.8027341 -5.70431,3.0013036 -13.20895,6.9455131 -16.67578,8.76562503 -4.92452,2.58541367 -8.51043,4.05941277 -7.69726,7.16796877 0.24134,0.9229237 2.00795,3.5956601 3.52343,5.8300781 1.51409,2.232352 3.4961,5.685547 5.66993,5.685547 1.32436,0 5.92194,-2.591606 11.11914,-5.333984 5.19476,-2.741075 12.1227,-6.3824367 15.39257,-8.0917974 3.27757,-1.7133851 6.17834,-3.1704266 6.95508,-3.9042969 1.85654,-1.75405309 0.88351,-4.0563089 0.0527,-6.2089843 -0.55854,-1.4472375 -1.46008,-3.7913244 -2.00391,-5.2089844 -0.64775,-1.688562 -1.57914,-4.503906 -4.17969,-4.503906 z"
         id="path4"
         transform="translate(188.97869,126.24718)" />
      <path
         id="path55"
         style="fill:#1a636a;fill-opacity:1;stroke:#000000;stroke-width:4.99999;stroke-dasharray:none"
         d="M 50.359717,61.13787 A 36.422432,36.422432 0 0 0 13.937134,97.559937 36.422432,36.422432 0 0 0 44.128056,133.38411 c -0.402937,-2.8325 3.068506,-4.29117 7.770585,-6.7598 3.46682,-1.82011 10.971675,-5.76457 16.675985,-8.76587 5.705754,-3.00207 10.865889,-5.80275 12.155847,-5.80275 1.0767,0 1.864251,0.48608 2.467033,1.17151 A 36.422432,36.422432 0 0 0 86.781783,97.559937 36.422432,36.422432 0 0 0 50.359717,61.13787 Z" />
    </g>
  </g>
</svg>
